HIERARCHY
ROOT Hips
{
	OFFSET 55.310501 45.591206 43.872097
	CHANNELS 6 Xposition Yposition Zposition Zrotation Xrotation Yrotation
	JOINT Chest
	{
		OFFSET -0.153500 1.163101 7.852402
		CHANNELS 6 Xposition Yposition Zposition Zrotation Xrotation Yrotation
		JOINT Chest2
		{
			OFFSET 0.000000 0.000000 3.343300
			CHANNELS 6 Xposition Yposition Zposition Zrotation Xrotation Yrotation
			JOINT Neck
			{
				OFFSET 0.000000 0.000000 7.785500
				CHANNELS 6 Xposition Yposition Zposition Zrotation Xrotation Yrotation
				JOINT Head
				{
					OFFSET 0.000000 0.000000 2.173901
					CHANNELS 6 Xposition Yposition Zposition Zrotation Xrotation Yrotation
					End Site
					{
						OFFSET 0.000000 0.000000 10.528198
					}
				}
			}
			JOINT LeftCollar
			{
				OFFSET 2.676300 -1.652401 4.938301
				CHANNELS 6 Xposition Yposition Zposition Zrotation Xrotation Yrotation
				JOINT LeftShoulder
				{
					OFFSET 4.299000 0.000000 0.000000
					CHANNELS 6 Xposition Yposition Zposition Zrotation Xrotation Yrotation
					JOINT LeftElbow
					{
						OFFSET 0.000000 0.000000 -10.245102
						CHANNELS 6 Xposition Yposition Zposition Zrotation Xrotation Yrotation
						JOINT LeftWrist
						{
							OFFSET 0.000000 0.000000 -12.703300
							CHANNELS 6 Xposition Yposition Zposition Zrotation Xrotation Yrotation
							End Site
							{
								OFFSET 0.000000 0.000000 -2.173901
							}
						}
					}
				}
			}
			JOINT RightCollar
			{
				OFFSET -2.534599 -1.686401 5.195000
				CHANNELS 6 Xposition Yposition Zposition Zrotation Xrotation Yrotation
				JOINT RightShoulder
				{
					OFFSET -4.144100 0.000000 0.000000
					CHANNELS 6 Xposition Yposition Zposition Zrotation Xrotation Yrotation
					JOINT RightElbow
					{
						OFFSET 0.000000 0.000000 -10.116501
						CHANNELS 6 Xposition Yposition Zposition Zrotation Xrotation Yrotation
						JOINT RightWrist
						{
							OFFSET 0.000000 0.000000 -12.937801
							CHANNELS 6 Xposition Yposition Zposition Zrotation Xrotation Yrotation
							End Site
							{
								OFFSET 0.000000 0.000000 -2.173901
							}
						}
					}
				}
			}
		}
	}
	JOINT LeftHip
	{
		OFFSET 2.175598 0.064499 -2.662899
		CHANNELS 6 Xposition Yposition Zposition Zrotation Xrotation Yrotation
		JOINT LeftKnee
		{
			OFFSET 0.000000 -0.000004 -18.585800
			CHANNELS 6 Xposition Yposition Zposition Zrotation Xrotation Yrotation
			JOINT LeftAnkle
			{
				OFFSET 0.000000 0.000000 -18.979500
				CHANNELS 6 Xposition Yposition Zposition Zrotation Xrotation Yrotation
				End Site
				{
					OFFSET 0.000000 -9.264000 0.000000
				}
			}
		}
	}
	JOINT RightHip
	{
		OFFSET -2.092400 -0.058102 -2.581200
		CHANNELS 6 Xposition Yposition Zposition Zrotation Xrotation Yrotation
		JOINT RightKnee
		{
			OFFSET 0.000000 -0.000004 -18.665001
			CHANNELS 6 Xposition Yposition Zposition Zrotation Xrotation Yrotation
			JOINT RightAnkle
			{
				OFFSET 0.000000 0.000000 -18.566601
				CHANNELS 6 Xposition Yposition Zposition Zrotation Xrotation Yrotation
				End Site
				{
					OFFSET 0.000000 -8.497601 0.000000
				}
			}
		}
	}
}
MOTION
Frames: 7
Frame Time: 0.041667
70.039597 51.573399 39.675594 217.423172 1.800604 3.829119 -0.153493 1.163101 7.852402 -2.185912 12.700582 -3.045218 -0.000002 -0.000000 3.343302 -0.360897 -5.888439 0.034796 -0.000004 0.000005 7.785503 -31.133047 3.714981 6.202475 0.000007 -0.000003 2.173901 -1.179661 -1.843259 -1.040731 2.676295 -1.652400 4.938303 -7.858414 9.191578 -0.686613 4.298994 0.000004 -0.000004 -43.349028 16.950918 -13.051551 0.000000 0.000006 -10.245100 227.300718 190.481326 227.245516 -0.000006 0.000000 -12.703294 -4.342700 7.354253 27.570269 -2.534592 -1.686400 5.195001 -1.866505 1.249999 -14.248854 -4.144094 0.000008 -0.000005 5.327081 -14.774819 104.398540 0.000016 0.000004 -10.116482 -65.366017 -4.336533 0.209939 -0.000008 0.000003 -12.937802 4.869742 -26.279525 -17.513927 2.175602 0.064489 -2.662897 -349.278334 -11.245106 10.448776 -0.000010 -0.000004 -18.585802 137.153217 -231.423639 -141.927984 -0.000008 0.000004 -18.979500 367.634194 9.402620 -6.645259 -2.092393 -0.058107 -2.581198 -53.432638 -37.159176 -14.287149 0.000006 0.000007 -18.665016 -355.196830 29.401611 11.370401 -0.000004 -0.000001 -18.566607 410.555895 24.302554 12.768826
69.839493 52.359798 39.787693 220.366833 1.526486 3.806429 -0.153507 1.163102 7.852402 -2.086659 12.756023 -3.035515 0.000008 0.000000 3.343298 -0.344091 -5.863416 0.034084 0.000010 0.000003 7.785495 -30.349037 3.919701 6.106797 -0.000003 0.000001 2.173895 -1.135561 -1.775362 -0.758674 2.676302 -1.652405 4.938303 -7.843469 9.115942 -1.089437 4.298996 0.000005 -0.000010 -43.212087 16.988702 -12.802596 -0.000006 -0.000002 -10.245107 225.901540 192.303266 227.468741 0.000008 -0.000002 -12.703303 -4.757429 7.097875 27.574993 -2.534592 -1.686404 5.195002 -1.046694 1.244606 -13.912052 -4.144104 0.000008 -0.000011 4.155057 -14.863383 103.727836 0.000003 0.000010 -10.116480 -65.239358 -4.355714 0.154039 0.000006 0.000001 -12.937788 4.827310 -26.253738 -17.099081 2.175590 0.064490 -2.662899 -347.439483 -12.435614 9.574264 -0.000011 -0.000002 -18.585804 132.183995 -234.809719 -137.385307 0.000005 0.000003 -18.979504 366.802769 13.794562 -5.769454 -2.092400 -0.058109 -2.581200 -50.743367 -36.262079 -12.404457 0.000003 -0.000014 -18.665001 -351.777637 30.101873 10.709701 0.000011 0.000002 -18.566607 409.435307 24.754274 13.144290
69.626190 53.136909 39.882896 223.574426 1.325879 3.869558 -0.153505 1.163110 7.852398 -2.049872 12.741247 -3.096243 0.000011 0.000013 3.343300 -0.382890 -5.854851 0.032169 0.000000 -0.000009 7.785501 -30.271545 4.100623 6.657280 -0.000000 0.000001 2.173903 -0.413611 -1.818081 -1.154273 2.676298 -1.652405 4.938302 -7.819995 9.136706 -1.115788 4.299006 0.000012 0.000007 -43.354735 17.259015 -12.930514 -0.000006 0.000000 -10.245086 224.741815 194.049595 227.489095 -0.000010 0.000001 -12.703292 -5.128035 6.919704 27.645399 -2.534595 -1.686401 5.195008 -1.047742 1.198939 -13.992361 -4.144094 0.000000 0.000004 3.728411 -14.536383 103.543981 0.000000 0.000005 -10.116514 -65.054540 -4.334559 0.127528 0.000005 -0.000007 -12.937785 4.573147 -26.549917 -17.584592 2.175587 0.064507 -2.662903 -344.499743 -14.188104 8.961588 -0.000005 -0.000002 -18.585804 119.316315 -234.927034 -127.245072 -0.000011 -0.000002 -18.979496 370.537025 17.184397 -4.473769 -2.092400 -0.058104 -2.581198 -48.641441 -35.417290 -10.916364 -0.000005 0.000010 -18.664999 -345.520282 32.549420 9.518060 0.000013 -0.000008 -18.566605 404.298267 24.110103 15.084997
69.396790 53.901005 39.959595 227.058369 1.247579 4.059179 -0.153508 1.163101 7.852407 -2.413072 12.627386 -3.237054 0.000006 -0.000002 3.343307 -0.315868 -5.822159 0.030335 0.000001 -0.000002 7.785499 -28.625678 4.328581 5.833088 -0.000003 0.000003 2.173903 -1.064118 -1.674931 -0.224558 2.676301 -1.652396 4.938292 -7.772245 9.077382 -1.108273 4.299004 -0.000003 0.000003 -43.540721 17.571941 -13.034010 -0.000008 0.000006 -10.245087 223.503720 195.689619 227.547356 -0.000003 0.000001 -12.703297 -4.976494 6.797732 26.610642 -2.534590 -1.686401 5.194992 -0.837607 1.335932 -14.051992 -4.144101 0.000000 -0.000010 3.198034 -14.307073 103.410976 0.000009 0.000001 -10.116486 -64.983697 -4.297667 0.126047 0.000010 0.000006 -12.937808 4.229354 -26.627101 -17.668048 2.175582 0.064486 -2.662901 -340.435179 -16.432689 8.851954 0.000004 -0.000006 -18.585804 111.063637 -238.229239 -120.988523 -0.000014 -0.000009 -18.979502 369.756525 19.240587 -3.955930 -2.092405 -0.058109 -2.581198 -47.852756 -34.618011 -10.090916 0.000003 0.000000 -18.665005 -336.694476 36.208230 6.944209 -0.000003 0.000003 -18.566601 395.965218 22.461465 17.687777
69.153793 54.650307 40.016396 230.678574 1.277190 4.377064 -0.153487 1.163100 7.852401 -2.934151 12.447846 -3.494565 0.000017 -0.000003 3.343302 -0.173444 -5.743515 0.027615 0.000010 0.000006 7.785507 -27.920335 4.437295 5.777638 -0.000000 -0.000008 2.173911 -0.858202 -1.580189 -0.106144 2.676314 -1.652404 4.938308 -7.978124 8.964873 -1.062781 4.299006 0.000007 -0.000013 -43.558237 17.810966 -13.072524 -0.000008 0.000004 -10.245094 222.336714 197.392740 227.629469 0.000002 0.000005 -12.703299 -5.185974 6.698065 26.265028 -2.534580 -1.686396 5.195005 -0.710127 1.331460 -13.850969 -4.144097 0.000008 -0.000006 2.609321 -14.017115 103.049120 -0.000005 -0.000003 -10.116504 -64.974749 -4.306733 0.069066 0.000007 0.000001 -12.937796 3.873749 -26.700106 -17.860844 2.175606 0.064496 -2.662890 -335.538972 -18.962287 9.336966 -0.000012 -0.000001 -18.585804 99.845966 -238.864119 -113.042834 -0.000003 -0.000009 -18.979492 371.406016 19.564390 -3.052359 -2.092390 -0.058105 -2.581198 -45.720030 -33.980966 -8.297765 0.000015 -0.000008 -18.665005 -330.944276 39.528921 4.040952 0.000009 0.000008 -18.566608 388.906491 20.556545 18.772983
68.903198 55.376507 40.060093 234.476078 1.432819 4.774581 -0.153489 1.163105 7.852407 -3.585103 12.223988 -3.808553 -0.000007 0.000006 3.343307 -0.061293 -5.652532 0.022326 0.000008 0.000004 7.785503 -27.223237 4.484572 5.628805 0.000012 -0.000002 2.173912 -0.629630 -1.484982 -0.082600 2.676303 -1.652396 4.938298 -7.841202 8.675040 -1.239604 4.298996 0.000016 0.000002 -44.069887 17.959899 -12.843365 -0.000004 -0.000004 -10.245095 221.171948 199.056397 227.621573 -0.000005 0.000006 -12.703292 -5.443017 6.572028 25.857054 -2.534593 -1.686399 5.195004 -0.596211 1.289585 -13.673408 -4.144097 0.000008 -0.000010 2.137010 -13.955507 102.713109 0.000005 -0.000004 -10.116506 -65.037054 -4.339020 0.013742 -0.000002 0.000005 -12.937801 3.662995 -26.727452 -18.014969 2.175602 0.064499 -2.662889 -330.599242 -21.578577 10.525766 -0.000008 -0.000007 -18.585802 90.354701 -238.509769 -106.858351 0.000000 0.000002 -18.979502 373.214459 18.079294 -1.901147 -2.092395 -0.058096 -2.581196 -44.819927 -33.318626 -6.932292 0.000020 -0.000013 -18.665012 -327.702504 42.224520 1.715938 0.000016 -0.000006 -18.566605 383.919852 18.883752 18.965897
68.643402 56.073006 40.101788 238.244812 1.692593 5.176763 -0.153488 1.163098 7.852404 -4.182525 11.992359 -4.115533 0.000010 0.000005 3.343296 0.048258 -5.600091 0.017249 0.000005 -0.000009 7.785505 -26.665362 4.500743 5.415763 -0.000016 0.000001 2.173903 -0.394164 -1.404355 -0.113533 2.676300 -1.652406 4.938306 -7.676538 8.348657 -1.368977 4.298990 0.000005 -0.000004 -44.582339 18.051584 -12.567698 -0.000008 0.000000 -10.245090 219.880455 200.732744 227.450149 0.000002 -0.000001 -12.703300 -5.635085 6.470495 25.496548 -2.534594 -1.686409 5.195008 -0.597522 1.171396 -13.563937 -4.144109 0.000005 -0.000007 1.803399 -13.917000 102.393162 0.000003 -0.000005 -10.116487 -65.409634 -4.437836 -0.071143 0.000003 0.000005 -12.937796 3.792514 -26.784903 -18.142162 2.175603 0.064507 -2.662898 -325.839010 -24.063383 12.211452 -0.000005 -0.000003 -18.585806 83.783601 -237.500677 -103.265712 -0.000005 -0.000010 -18.979504 374.773518 15.605717 -1.295633 -2.092386 -0.058104 -2.581191 -43.705841 -32.528335 -5.280450 0.000010 -0.000002 -18.665009 -326.834087 44.235741 -0.212679 0.000008 0.000001 -18.566607 380.041752 17.148336 18.779752
